<svg width="24" height="30" viewBox="0 0 24 30" fill="none" xmlns="http://www.w3.org/2000/svg">
<g clip-path="url(#clip0_42_1766)">
<path d="M12.017 17.1435C11.2907 17.1432 10.5715 16.9998 9.90061 16.7216C9.22969 16.4434 8.62015 16.0357 8.10677 15.5219C7.5934 15.0081 7.18626 14.3983 6.90858 13.7271C6.63091 13.056 6.48814 12.3367 6.48844 11.6104C6.48904 10.1443 7.0717 8.73846 8.10837 7.70179C9.14505 6.66511 10.5509 6.08244 12.017 6.08184C13.4831 6.08244 14.8889 6.66511 15.9256 7.70179C16.9623 8.73846 17.545 10.1443 17.5455 11.6104C17.5458 12.3367 17.4031 13.056 17.1254 13.7271C16.8477 14.3983 16.4406 15.0081 15.9272 15.5219C15.4138 16.0357 14.8043 16.4434 14.1334 16.7216C13.4624 16.9998 12.7433 17.1432 12.017 17.1435ZM12.0012 -4.98526e-05C10.4253 -0.000643106 8.8647 0.309215 7.40855 0.911808C5.95241 1.5144 4.62922 2.39793 3.51458 3.51195C2.39993 4.62597 1.51566 5.94866 0.912245 7.40446C0.30883 8.86027 -0.00190076 10.4207 -0.00219727 11.9966C-0.000405519 14.5145 0.793301 16.9681 2.26659 19.0101C3.73988 21.052 5.8181 22.5788 8.20707 23.3744C8.24906 23.3834 8.29052 23.3947 8.33128 23.4083C9.03406 23.632 9.75608 23.79 10.4881 23.8803C12.4167 24.1964 12.5658 25.5402 11.7324 26.9991C11.448 27.4829 11.1069 27.931 10.7161 28.3338C10.5332 28.5281 10.3435 28.7155 10.1403 28.8984C10.0407 28.9855 9.97435 29.1045 9.95266 29.235C9.93097 29.3655 9.95526 29.4995 10.0214 29.6141C10.0875 29.7287 10.1913 29.8168 10.3151 29.8634C10.4389 29.91 10.5751 29.9122 10.7003 29.8696C14.1399 28.6997 23.9775 22.6427 24.0068 11.9876C24.0334 10.4048 23.7413 8.83289 23.1478 7.36538C22.5543 5.89788 21.6716 4.56477 20.5523 3.44544C19.433 2.32611 18.0999 1.44346 16.6324 0.849986C15.1649 0.25651 13.593 -0.0356592 12.0102 -0.00907848" fill="#F21F0C"/>
</g>
<defs>
<clipPath id="clip0_42_1766">
<rect width="24" height="30" fill="white"/>
</clipPath>
</defs>
</svg>
