<svg width="50" height="50" viewBox="0 0 50 50" fill="none" xmlns="http://www.w3.org/2000/svg">
<g clip-path="url(#clip0_939_1623)">
<path fill-rule="evenodd" clip-rule="evenodd" d="M10.6659 33.7728H50V38.7295C50 44.8348 45.0049 49.8299 38.8996 49.8299H11.1004C4.99512 49.8299 0 44.8348 0 38.7295V33.7728H10.6659Z" fill="#D80027"/>
<path fill-rule="evenodd" clip-rule="evenodd" d="M10.6659 16.2271H0V11.2705C0 5.16522 4.99512 0.170105 11.1004 0.170105H38.8996C45.0049 0.170105 50 5.16522 50 11.2705V16.2271H10.6659Z" fill="#007A3D"/>
<path d="M10.666 16.2271H50.0001V33.7727H10.666V16.2271Z" fill="#F5F5F5"/>
<path fill-rule="evenodd" clip-rule="evenodd" d="M10.6659 38.6542V11.3458L1.8252 5.19247C0.633701 6.99555 -0.00104655 9.10931 1.29526e-06 11.2705V38.7295C-0.00104655 40.8907 0.633701 43.0044 1.8252 44.8075L10.6659 38.6542Z" fill="#6B809B"/>
<path fill-rule="evenodd" clip-rule="evenodd" d="M17.6791 33.7727V16.2271L10.6659 11.3458L1.8252 5.19247C0.633701 6.99555 -0.00104655 9.10931 1.29526e-06 11.2705V38.7295C-0.00104655 40.8907 0.633701 43.0044 1.8252 44.8075L10.6659 38.6542L17.6791 33.7727Z" fill="black"/>
</g>
<defs>
<clipPath id="clip0_939_1623">
<rect width="50" height="50" fill="white"/>
</clipPath>
</defs>
</svg>
